<svg id="visual" viewBox="0 0 900 100" width="900" height="100" xmlns="http://www.w3.org/2000/svg" xmlns:xlink="http://www.w3.org/1999/xlink" version="1.1"><path d="M0 28L82 22L164 18L245 30L327 24L409 24L491 26L573 24L655 19L736 32L818 23L900 29L900 0L818 0L736 0L655 0L573 0L491 0L409 0L327 0L245 0L164 0L82 0L0 0Z" fill="#038373"></path><path d="M0 61L82 55L164 49L245 66L327 56L409 58L491 66L573 52L655 56L736 49L818 56L900 54L900 27L818 21L736 30L655 17L573 22L491 24L409 22L327 22L245 28L164 16L82 20L0 26Z" fill="#00957c"></path><path d="M0 71L82 73L164 59L245 83L327 63L409 76L491 80L573 68L655 67L736 64L818 72L900 63L900 52L818 54L736 47L655 54L573 50L491 64L409 56L327 54L245 64L164 47L82 53L0 59Z" fill="#00a784"></path><path d="M0 84L82 81L164 76L245 89L327 78L409 87L491 89L573 82L655 83L736 79L818 81L900 78L900 61L818 70L736 62L655 65L573 66L491 78L409 74L327 61L245 81L164 57L82 71L0 69Z" fill="#00b98a"></path><path d="M0 101L82 101L164 101L245 101L327 101L409 101L491 101L573 101L655 101L736 101L818 101L900 101L900 76L818 79L736 77L655 81L573 80L491 87L409 85L327 76L245 87L164 74L82 79L0 82Z" fill="#00cc8e"></path></svg>